<svg xmlns="http://www.w3.org/2000/svg" xmlns:xlink="http://www.w3.org/1999/xlink" width="500" zoomAndPan="magnify" viewBox="0 0 375 374.999991" height="500" preserveAspectRatio="xMidYMid meet" version="1.0"><defs><g/><clipPath id="e0a7600ba4"><path d="M 17.96875 204.621094 L 286.320312 204.621094 L 286.320312 239.371094 L 17.96875 239.371094 Z M 17.96875 204.621094 " clip-rule="nonzero"/></clipPath></defs><rect x="-37.5" width="450" fill="#ffffff" y="-37.499999" height="449.999989" fill-opacity="1"/><rect x="-37.5" width="450" fill="#ffffff" y="-37.499999" height="449.999989" fill-opacity="1"/><g fill="#ffffff" fill-opacity="1"><g transform="translate(-10.223835, 272.121816)"><g><path d="M 101.003906 2.40625 C 125.292969 2.40625 153.191406 -10.101562 167.140625 -29.578125 L 167.140625 -74.792969 L 135.636719 -74.792969 L 135.636719 -71.90625 C 145.976562 -69.261719 147.898438 -63.488281 147.898438 -48.578125 L 148.140625 -24.046875 C 142.128906 -12.023438 126.496094 -2.40625 108.460938 -2.40625 C 59.882812 -2.40625 31.503906 -52.1875 31.984375 -97.636719 C 32.464844 -141.886719 58.4375 -165.695312 93.070312 -165.695312 C 121.207031 -165.695312 143.332031 -149.34375 152.230469 -128.660156 L 154.632812 -129.140625 L 153.671875 -157.519531 C 144.292969 -163.773438 121.445312 -170.023438 100.042969 -170.023438 C 48.578125 -170.023438 12.503906 -131.304688 12.503906 -82.96875 C 12.503906 -31.261719 47.375 2.40625 101.003906 2.40625 Z M 101.003906 2.40625 "/></g></g></g><g fill="#ffffff" fill-opacity="1"><g transform="translate(152.585734, 272.121816)"><g><path d="M 85.855469 -139.964844 L 107.738281 -86.816406 L 82.007812 -23.808594 L 37.515625 -139.722656 C 30.542969 -158.242188 28.859375 -163.050781 36.3125 -165.214844 L 36.3125 -168.339844 L -0.960938 -168.339844 L -0.960938 -165.214844 C 4.328125 -163.050781 9.859375 -158.242188 16.835938 -139.722656 L 69.980469 0 L 76.714844 0 L 109.902344 -81.523438 L 143.332031 0 L 150.0625 0 L 200.324219 -139.722656 C 207.058594 -158 212.832031 -163.050781 219.566406 -165.214844 L 219.566406 -168.339844 L 192.390625 -168.339844 L 192.390625 -165.214844 C 200.566406 -163.53125 202.007812 -155.355469 196.238281 -139.722656 L 154.394531 -24.289062 L 121.925781 -102.929688 L 135.394531 -139.722656 C 142.128906 -158 147.898438 -163.050781 154.632812 -165.214844 L 154.632812 -168.339844 L 128.179688 -168.339844 L 128.179688 -165.214844 C 136.117188 -163.53125 137.078125 -155.59375 131.066406 -139.722656 L 119.523438 -108.460938 L 106.535156 -140.203125 C 99.082031 -158.242188 97.15625 -163.050781 104.371094 -165.214844 L 104.371094 -168.339844 L 67.578125 -168.339844 L 67.578125 -165.214844 C 72.867188 -163.050781 78.640625 -158.242188 85.855469 -139.964844 Z M 85.855469 -139.964844 "/></g></g></g><g clip-path="url(#e0a7600ba4)"><path fill="#ffffff" d="M 17.96875 204.621094 L 286.320312 204.621094 L 286.320312 239.371094 L 17.96875 239.371094 Z M 17.96875 204.621094 " fill-opacity="1" fill-rule="nonzero"/></g><g fill="#000000" fill-opacity="1"><g transform="translate(134.459066, 226.4971)"><g><path d="M 3.625 1.5 C 3.007812 1.5 2.457031 1.328125 1.96875 0.984375 C 1.476562 0.648438 1.085938 0.160156 0.796875 -0.484375 C 0.515625 -1.140625 0.375 -1.910156 0.375 -2.796875 C 0.375 -4.234375 0.738281 -5.707031 1.46875 -7.21875 C 2.195312 -8.738281 3.117188 -9.988281 4.234375 -10.96875 C 5.347656 -11.957031 6.4375 -12.453125 7.5 -12.453125 C 8.113281 -12.453125 8.566406 -12.265625 8.859375 -11.890625 C 9.160156 -11.523438 9.3125 -11.0625 9.3125 -10.5 C 9.3125 -10.09375 9.238281 -9.691406 9.09375 -9.296875 C 8.957031 -8.910156 8.769531 -8.59375 8.53125 -8.34375 C 8.289062 -8.09375 8.039062 -7.96875 7.78125 -7.96875 C 7.550781 -7.96875 7.375 -8.101562 7.25 -8.375 C 7.414062 -8.488281 7.601562 -8.703125 7.8125 -9.015625 C 8.03125 -9.328125 8.210938 -9.664062 8.359375 -10.03125 C 8.515625 -10.40625 8.59375 -10.734375 8.59375 -11.015625 C 8.59375 -11.296875 8.507812 -11.519531 8.34375 -11.6875 C 8.175781 -11.851562 7.914062 -11.9375 7.5625 -11.9375 C 6.757812 -11.9375 5.898438 -11.414062 4.984375 -10.375 C 4.078125 -9.332031 3.3125 -8.0625 2.6875 -6.5625 C 2.070312 -5.0625 1.765625 -3.6875 1.765625 -2.4375 C 1.765625 -1.414062 1.976562 -0.601562 2.40625 0 C 2.84375 0.613281 3.40625 0.921875 4.09375 0.921875 C 4.664062 0.921875 5.207031 0.648438 5.71875 0.109375 C 6.226562 -0.429688 6.644531 -1.113281 6.96875 -1.9375 C 7.300781 -2.757812 7.5 -3.554688 7.5625 -4.328125 C 6.882812 -4.484375 6.285156 -4.5625 5.765625 -4.5625 L 4.71875 -4.546875 C 4.851562 -5.140625 5.242188 -5.4375 5.890625 -5.4375 C 6.171875 -5.4375 6.453125 -5.394531 6.734375 -5.3125 C 7.015625 -5.238281 7.40625 -5.113281 7.90625 -4.9375 C 8.1875 -4.8125 8.488281 -4.707031 8.8125 -4.625 L 8.703125 -4.078125 C 8.296875 -3.015625 8.015625 -2.160156 7.859375 -1.515625 C 7.710938 -0.867188 7.640625 -0.3125 7.640625 0.15625 C 7.640625 0.34375 7.648438 0.609375 7.671875 0.953125 C 7.703125 1.179688 7.71875 1.363281 7.71875 1.5 C 7.09375 1.257812 6.78125 0.847656 6.78125 0.265625 C 6.78125 0.00390625 6.816406 -0.257812 6.890625 -0.53125 C 5.910156 0.820312 4.820312 1.5 3.625 1.5 Z M 3.625 1.5 "/></g></g></g><g fill="#000000" fill-opacity="1"><g transform="translate(144.054502, 226.4971)"><g><path d="M 3 0.453125 C 2.601562 0.453125 2.289062 0.347656 2.0625 0.140625 C 1.84375 -0.0664062 1.734375 -0.335938 1.734375 -0.671875 C 1.734375 -1.066406 1.898438 -1.632812 2.234375 -2.375 C 2.378906 -2.757812 2.488281 -3.0625 2.5625 -3.28125 C 2.644531 -3.507812 2.6875 -3.722656 2.6875 -3.921875 C 2.6875 -4.203125 2.617188 -4.425781 2.484375 -4.59375 C 2.347656 -4.769531 2.195312 -4.910156 2.03125 -5.015625 C 1.875 -5.128906 1.769531 -5.203125 1.71875 -5.234375 C 1.457031 -4.585938 1.179688 -3.953125 0.890625 -3.328125 C 0.609375 -2.710938 0.367188 -2.238281 0.171875 -1.90625 L 0.015625 -2.203125 C 0.566406 -3.273438 1.035156 -4.375 1.421875 -5.5 C 1.304688 -5.613281 1.25 -5.75 1.25 -5.90625 C 1.25 -6.113281 1.289062 -6.3125 1.375 -6.5 C 1.457031 -6.6875 1.5625 -6.832031 1.6875 -6.9375 C 1.8125 -7.039062 1.90625 -7.09375 1.96875 -7.09375 C 2.132812 -7.09375 2.21875 -6.953125 2.21875 -6.671875 C 2.21875 -6.628906 2.1875 -6.523438 2.125 -6.359375 C 2.070312 -6.191406 2.039062 -6.082031 2.03125 -6.03125 C 2.03125 -5.914062 2.078125 -5.804688 2.171875 -5.703125 C 2.273438 -5.609375 2.4375 -5.488281 2.65625 -5.34375 C 3.007812 -5.082031 3.285156 -4.828125 3.484375 -4.578125 C 3.691406 -4.328125 3.796875 -4.007812 3.796875 -3.625 C 3.796875 -3.363281 3.753906 -3.109375 3.671875 -2.859375 C 3.585938 -2.617188 3.46875 -2.296875 3.3125 -1.890625 C 3.050781 -1.335938 2.921875 -0.9375 2.921875 -0.6875 C 2.921875 -0.34375 3.097656 -0.171875 3.453125 -0.171875 C 3.796875 -0.171875 4.164062 -0.304688 4.5625 -0.578125 C 4.957031 -0.859375 5.320312 -1.203125 5.65625 -1.609375 C 6 -2.023438 6.242188 -2.40625 6.390625 -2.75 L 6.625 -2.578125 C 6.257812 -1.785156 5.734375 -1.082031 5.046875 -0.46875 C 4.367188 0.144531 3.6875 0.453125 3 0.453125 Z M 3 0.453125 "/></g></g></g><g fill="#000000" fill-opacity="1"><g transform="translate(150.081956, 226.4971)"><g><path d="M 0.828125 0.8125 C 0.453125 0.8125 0.144531 0.6875 -0.09375 0.4375 C -0.332031 0.1875 -0.453125 -0.164062 -0.453125 -0.625 C -0.453125 -1.300781 -0.207031 -2.0625 0.28125 -2.90625 C 0.769531 -3.75 1.390625 -4.460938 2.140625 -5.046875 C 2.898438 -5.640625 3.632812 -5.9375 4.34375 -5.9375 C 4.800781 -5.9375 5.175781 -5.816406 5.46875 -5.578125 C 5.769531 -5.335938 5.921875 -5.023438 5.921875 -4.640625 C 5.921875 -4.378906 5.84375 -4.191406 5.6875 -4.078125 C 5.539062 -3.960938 5.335938 -3.90625 5.078125 -3.90625 C 5.128906 -4.101562 5.15625 -4.300781 5.15625 -4.5 C 5.15625 -4.789062 5.085938 -5.023438 4.953125 -5.203125 C 4.816406 -5.378906 4.601562 -5.46875 4.3125 -5.46875 C 3.800781 -5.46875 3.265625 -5.1875 2.703125 -4.625 C 2.148438 -4.0625 1.6875 -3.382812 1.3125 -2.59375 C 0.9375 -1.8125 0.75 -1.140625 0.75 -0.578125 C 0.75 -0.117188 0.90625 0.109375 1.21875 0.109375 C 1.675781 0.109375 2.21875 -0.253906 2.84375 -0.984375 C 3.46875 -1.722656 4.140625 -2.617188 4.859375 -3.671875 C 5.003906 -3.648438 5.15625 -3.597656 5.3125 -3.515625 C 5.46875 -3.441406 5.546875 -3.347656 5.546875 -3.234375 C 5.546875 -3.148438 5.488281 -3.003906 5.375 -2.796875 C 5.269531 -2.597656 5.207031 -2.476562 5.1875 -2.4375 C 4.988281 -2.101562 4.832031 -1.804688 4.71875 -1.546875 C 4.601562 -1.285156 4.546875 -1.046875 4.546875 -0.828125 C 4.546875 -0.628906 4.59375 -0.453125 4.6875 -0.296875 C 4.78125 -0.140625 4.925781 -0.0625 5.125 -0.0625 C 5.457031 -0.0625 5.878906 -0.300781 6.390625 -0.78125 C 6.898438 -1.257812 7.40625 -1.9375 7.90625 -2.8125 L 8.078125 -2.640625 C 7.835938 -2.023438 7.523438 -1.476562 7.140625 -1 C 6.753906 -0.519531 6.34375 -0.148438 5.90625 0.109375 C 5.46875 0.378906 5.046875 0.515625 4.640625 0.515625 C 4.234375 0.515625 3.921875 0.394531 3.703125 0.15625 C 3.492188 -0.0703125 3.390625 -0.351562 3.390625 -0.6875 C 3.390625 -0.84375 3.410156 -1.015625 3.453125 -1.203125 C 2.929688 -0.503906 2.460938 0.00390625 2.046875 0.328125 C 1.640625 0.648438 1.234375 0.8125 0.828125 0.8125 Z M 0.828125 0.8125 "/></g></g></g><g fill="#000000" fill-opacity="1"><g transform="translate(157.633591, 226.4971)"><g><path d="M 5.59375 0.34375 C 5.195312 0.34375 4.894531 0.238281 4.6875 0.03125 C 4.488281 -0.164062 4.390625 -0.429688 4.390625 -0.765625 C 4.390625 -0.910156 4.414062 -1.082031 4.46875 -1.28125 C 4.519531 -1.488281 4.570312 -1.691406 4.625 -1.890625 C 4.695312 -2.097656 4.757812 -2.316406 4.8125 -2.546875 C 4.863281 -2.773438 4.890625 -2.984375 4.890625 -3.171875 C 4.890625 -3.734375 4.65625 -4.015625 4.1875 -4.015625 C 3.75 -4.015625 3.289062 -3.785156 2.8125 -3.328125 C 2.332031 -2.867188 1.90625 -2.351562 1.53125 -1.78125 C 1.15625 -1.21875 0.734375 -0.535156 0.265625 0.265625 C 0.0664062 0.265625 -0.109375 0.226562 -0.265625 0.15625 C -0.429688 0.09375 -0.5625 0 -0.65625 -0.125 C -0.65625 -0.175781 -0.582031 -0.382812 -0.4375 -0.75 C -0.144531 -1.488281 0.0859375 -2.160156 0.265625 -2.765625 C 0.453125 -3.367188 0.554688 -3.910156 0.578125 -4.390625 C 0.648438 -4.472656 0.757812 -4.550781 0.90625 -4.625 C 1.0625 -4.707031 1.21875 -4.75 1.375 -4.75 C 1.6875 -4.75 1.84375 -4.597656 1.84375 -4.296875 C 1.84375 -4.117188 1.789062 -3.8125 1.6875 -3.375 C 1.582031 -2.945312 1.445312 -2.492188 1.28125 -2.015625 C 1.832031 -2.867188 2.421875 -3.585938 3.046875 -4.171875 C 3.671875 -4.765625 4.285156 -5.0625 4.890625 -5.0625 C 5.316406 -5.0625 5.632812 -4.90625 5.84375 -4.59375 C 6.0625 -4.289062 6.171875 -3.925781 6.171875 -3.5 C 6.171875 -3.25 6.140625 -3.003906 6.078125 -2.765625 C 6.015625 -2.535156 5.914062 -2.269531 5.78125 -1.96875 C 5.675781 -1.71875 5.59375 -1.5 5.53125 -1.3125 C 5.476562 -1.132812 5.453125 -0.953125 5.453125 -0.765625 C 5.453125 -0.328125 5.628906 -0.109375 5.984375 -0.109375 C 6.367188 -0.109375 6.769531 -0.363281 7.1875 -0.875 C 7.613281 -1.394531 8.019531 -2.039062 8.40625 -2.8125 L 8.59375 -2.578125 C 7.757812 -0.628906 6.757812 0.34375 5.59375 0.34375 Z M 5.59375 0.34375 "/></g></g></g><g fill="#000000" fill-opacity="1"><g transform="translate(165.704834, 226.4971)"><g><path d="M 1.015625 0.515625 C 0.679688 0.515625 0.378906 0.390625 0.109375 0.140625 C -0.148438 -0.0976562 -0.28125 -0.457031 -0.28125 -0.9375 C -0.28125 -1.570312 -0.0390625 -2.3125 0.4375 -3.15625 C 0.925781 -4.007812 1.535156 -4.734375 2.265625 -5.328125 C 2.992188 -5.929688 3.703125 -6.234375 4.390625 -6.234375 C 4.890625 -6.234375 5.140625 -6.054688 5.140625 -5.703125 C 5.140625 -5.648438 5.128906 -5.566406 5.109375 -5.453125 C 4.992188 -5.628906 4.773438 -5.71875 4.453125 -5.71875 C 3.878906 -5.71875 3.316406 -5.441406 2.765625 -4.890625 C 2.222656 -4.347656 1.78125 -3.707031 1.4375 -2.96875 C 1.101562 -2.226562 0.9375 -1.617188 0.9375 -1.140625 C 0.9375 -0.890625 0.988281 -0.6875 1.09375 -0.53125 C 1.207031 -0.382812 1.363281 -0.3125 1.5625 -0.3125 C 1.875 -0.3125 2.253906 -0.507812 2.703125 -0.90625 C 3.148438 -1.300781 3.601562 -1.863281 4.0625 -2.59375 C 4.53125 -3.320312 4.941406 -4.148438 5.296875 -5.078125 C 6.203125 -7.410156 6.957031 -9.222656 7.5625 -10.515625 C 8.164062 -11.816406 8.675781 -12.46875 9.09375 -12.46875 C 9.1875 -12.46875 9.265625 -12.429688 9.328125 -12.359375 C 9.398438 -12.285156 9.4375 -12.191406 9.4375 -12.078125 C 9.4375 -11.898438 9.34375 -11.597656 9.15625 -11.171875 C 8.976562 -10.753906 8.679688 -10.109375 8.265625 -9.234375 C 7.410156 -7.453125 6.726562 -5.910156 6.21875 -4.609375 C 5.707031 -3.316406 5.453125 -2.1875 5.453125 -1.21875 C 5.453125 -0.832031 5.472656 -0.570312 5.515625 -0.4375 C 5.554688 -0.3125 5.671875 -0.25 5.859375 -0.25 C 6.097656 -0.25 6.378906 -0.351562 6.703125 -0.5625 C 7.035156 -0.78125 7.363281 -1.082031 7.6875 -1.46875 C 8.007812 -1.851562 8.289062 -2.300781 8.53125 -2.8125 L 8.734375 -2.65625 C 8.515625 -2.070312 8.210938 -1.539062 7.828125 -1.0625 C 7.453125 -0.59375 7.046875 -0.222656 6.609375 0.046875 C 6.171875 0.316406 5.757812 0.453125 5.375 0.453125 C 4.976562 0.453125 4.6875 0.320312 4.5 0.0625 C 4.320312 -0.1875 4.234375 -0.488281 4.234375 -0.84375 C 4.234375 -1.238281 4.34375 -1.859375 4.5625 -2.703125 C 3.96875 -1.734375 3.351562 -0.953125 2.71875 -0.359375 C 2.09375 0.222656 1.523438 0.515625 1.015625 0.515625 Z M 1.015625 0.515625 "/></g></g></g><g fill="#000000" fill-opacity="1"><g transform="translate(173.897327, 226.4971)"><g><path d="M 4.890625 0.671875 C 4.265625 0.671875 3.953125 0.113281 3.953125 -1 C 3.953125 -1.414062 3.992188 -1.9375 4.078125 -2.5625 C 3.609375 -1.632812 3.144531 -0.890625 2.6875 -0.328125 C 2.238281 0.234375 1.773438 0.515625 1.296875 0.515625 C 0.929688 0.515625 0.625 0.34375 0.375 0 C 0.125 -0.332031 0 -0.742188 0 -1.234375 C 0 -1.660156 0.0859375 -2.1875 0.265625 -2.8125 C 0.441406 -3.445312 0.65625 -3.992188 0.90625 -4.453125 C 1.15625 -4.921875 1.363281 -5.15625 1.53125 -5.15625 C 1.613281 -5.15625 1.738281 -5.117188 1.90625 -5.046875 C 2.082031 -4.984375 2.171875 -4.90625 2.171875 -4.8125 C 1.921875 -4.445312 1.660156 -3.898438 1.390625 -3.171875 C 1.128906 -2.453125 1 -1.835938 1 -1.328125 C 1 -1.066406 1.039062 -0.804688 1.125 -0.546875 C 1.207031 -0.296875 1.367188 -0.171875 1.609375 -0.171875 C 1.972656 -0.171875 2.375 -0.476562 2.8125 -1.09375 C 3.25 -1.71875 3.710938 -2.515625 4.203125 -3.484375 C 4.296875 -3.960938 4.375 -4.3125 4.4375 -4.53125 C 4.507812 -4.75 4.578125 -4.890625 4.640625 -4.953125 C 4.703125 -5.015625 4.789062 -5.046875 4.90625 -5.046875 C 5.050781 -5.046875 5.171875 -5.015625 5.265625 -4.953125 C 5.359375 -4.890625 5.40625 -4.789062 5.40625 -4.65625 C 5.40625 -4.625 5.394531 -4.5625 5.375 -4.46875 C 5.25 -4.039062 5.132812 -3.472656 5.03125 -2.765625 C 4.9375 -2.066406 4.890625 -1.425781 4.890625 -0.84375 C 4.890625 -0.28125 5.015625 0 5.265625 0 C 5.585938 0 6.007812 -0.359375 6.53125 -1.078125 C 7.050781 -1.804688 7.523438 -2.628906 7.953125 -3.546875 C 7.953125 -5.015625 8.238281 -5.75 8.8125 -5.75 C 9.007812 -5.75 9.160156 -5.675781 9.265625 -5.53125 C 9.378906 -5.382812 9.4375 -5.238281 9.4375 -5.09375 C 9.4375 -4.976562 9.378906 -4.816406 9.265625 -4.609375 C 9.128906 -4.335938 9.023438 -4.070312 8.953125 -3.8125 C 8.878906 -3.5625 8.84375 -3.210938 8.84375 -2.765625 C 8.84375 -2.390625 8.894531 -2.078125 9 -1.828125 C 9.113281 -1.578125 9.332031 -1.453125 9.65625 -1.453125 C 9.90625 -1.453125 10.140625 -1.550781 10.359375 -1.75 C 10.578125 -1.945312 10.796875 -2.273438 11.015625 -2.734375 L 11.25 -2.5625 C 10.832031 -1.59375 10.257812 -1.109375 9.53125 -1.109375 C 9.175781 -1.109375 8.875 -1.226562 8.625 -1.46875 C 8.375 -1.71875 8.191406 -2.082031 8.078125 -2.5625 C 7.585938 -1.664062 7.054688 -0.898438 6.484375 -0.265625 C 5.910156 0.359375 5.378906 0.671875 4.890625 0.671875 Z M 4.890625 0.671875 "/></g></g></g><g fill="#000000" fill-opacity="1"><g transform="translate(184.583933, 226.4971)"><g><path d="M 3.328125 -7.484375 C 3.117188 -7.484375 2.945312 -7.53125 2.8125 -7.625 C 2.675781 -7.726562 2.609375 -7.875 2.609375 -8.0625 C 2.609375 -8.289062 2.75 -8.492188 3.03125 -8.671875 C 3.3125 -8.859375 3.59375 -8.953125 3.875 -8.953125 C 4.257812 -8.953125 4.453125 -8.773438 4.453125 -8.421875 C 4.453125 -8.203125 4.332031 -7.988281 4.09375 -7.78125 C 3.863281 -7.582031 3.609375 -7.484375 3.328125 -7.484375 Z M 1.25 0.453125 C 0.820312 0.453125 0.488281 0.316406 0.25 0.046875 C 0.0195312 -0.222656 -0.09375 -0.570312 -0.09375 -1 C -0.09375 -1.457031 0.0351562 -2.082031 0.296875 -2.875 C 0.554688 -3.675781 0.878906 -4.375 1.265625 -4.96875 C 1.660156 -5.570312 2.039062 -5.875 2.40625 -5.875 C 2.507812 -5.875 2.597656 -5.835938 2.671875 -5.765625 C 2.753906 -5.703125 2.796875 -5.613281 2.796875 -5.5 C 2.796875 -5.332031 2.609375 -4.941406 2.234375 -4.328125 C 1.847656 -3.691406 1.539062 -3.125 1.3125 -2.625 C 1.09375 -2.125 0.984375 -1.648438 0.984375 -1.203125 C 0.984375 -0.796875 1.050781 -0.519531 1.1875 -0.375 C 1.320312 -0.226562 1.539062 -0.15625 1.84375 -0.15625 C 2.738281 -0.15625 3.625 -1.039062 4.5 -2.8125 L 4.65625 -2.640625 C 4.332031 -1.660156 3.851562 -0.898438 3.21875 -0.359375 C 2.59375 0.179688 1.9375 0.453125 1.25 0.453125 Z M 1.25 0.453125 "/></g></g></g><g fill="#000000" fill-opacity="1"><g transform="translate(188.75812, 226.4971)"><g><path d="M 1.875 0.765625 C 1.1875 0.765625 0.660156 0.578125 0.296875 0.203125 C -0.0664062 -0.171875 -0.25 -0.65625 -0.25 -1.25 C -0.25 -1.925781 -0.0234375 -2.65625 0.421875 -3.4375 C 0.878906 -4.226562 1.453125 -4.890625 2.140625 -5.421875 C 2.828125 -5.960938 3.5 -6.234375 4.15625 -6.234375 C 4.875 -6.234375 5.234375 -5.882812 5.234375 -5.1875 C 5.234375 -4.613281 5.019531 -4.082031 4.59375 -3.59375 C 4.164062 -3.101562 3.613281 -2.703125 2.9375 -2.390625 C 2.269531 -2.078125 1.601562 -1.882812 0.9375 -1.8125 C 0.882812 -1.625 0.859375 -1.421875 0.859375 -1.203125 C 0.859375 -0.785156 0.960938 -0.4375 1.171875 -0.15625 C 1.378906 0.125 1.734375 0.265625 2.234375 0.265625 C 2.941406 0.265625 3.648438 -0.0234375 4.359375 -0.609375 C 5.078125 -1.203125 5.660156 -1.9375 6.109375 -2.8125 L 6.328125 -2.65625 C 5.859375 -1.625 5.210938 -0.796875 4.390625 -0.171875 C 3.578125 0.453125 2.738281 0.765625 1.875 0.765625 Z M 1.015625 -2.15625 C 1.503906 -2.320312 2.015625 -2.5625 2.546875 -2.875 C 3.078125 -3.1875 3.53125 -3.550781 3.90625 -3.96875 C 4.28125 -4.394531 4.46875 -4.835938 4.46875 -5.296875 C 4.46875 -5.441406 4.441406 -5.546875 4.390625 -5.609375 C 4.335938 -5.671875 4.242188 -5.703125 4.109375 -5.703125 C 3.742188 -5.703125 3.347656 -5.519531 2.921875 -5.15625 C 2.503906 -4.800781 2.117188 -4.347656 1.765625 -3.796875 C 1.421875 -3.242188 1.171875 -2.695312 1.015625 -2.15625 Z M 1.015625 -2.15625 "/></g></g></g><g fill="#000000" fill-opacity="1"><g transform="translate(194.52577, 226.4971)"><g><path d="M 1.125 0.671875 C 0.78125 0.671875 0.535156 0.503906 0.390625 0.171875 C 0.242188 -0.148438 0.171875 -0.617188 0.171875 -1.234375 C 0.171875 -1.453125 0.207031 -2.207031 0.28125 -3.5 C 0.300781 -3.84375 0.335938 -4.0625 0.390625 -4.15625 C 0.453125 -4.257812 0.597656 -4.3125 0.828125 -4.3125 C 1.023438 -4.3125 1.148438 -4.273438 1.203125 -4.203125 C 1.253906 -4.128906 1.28125 -3.984375 1.28125 -3.765625 C 1.28125 -3.523438 1.257812 -3.097656 1.21875 -2.484375 C 1.15625 -1.921875 1.125 -1.414062 1.125 -0.96875 C 1.125 -0.625 1.148438 -0.375 1.203125 -0.21875 C 1.265625 -0.0703125 1.375 0 1.53125 0 C 1.90625 0 2.363281 -0.390625 2.90625 -1.171875 C 3.445312 -1.953125 3.941406 -2.828125 4.390625 -3.796875 C 4.410156 -4.523438 4.484375 -5.03125 4.609375 -5.3125 C 4.742188 -5.601562 4.9375 -5.75 5.1875 -5.75 C 5.375 -5.75 5.523438 -5.675781 5.640625 -5.53125 C 5.753906 -5.382812 5.8125 -5.238281 5.8125 -5.09375 C 5.8125 -4.976562 5.75 -4.816406 5.625 -4.609375 C 5.488281 -4.335938 5.382812 -4.070312 5.3125 -3.8125 C 5.238281 -3.5625 5.203125 -3.210938 5.203125 -2.765625 C 5.203125 -2.390625 5.253906 -2.078125 5.359375 -1.828125 C 5.472656 -1.578125 5.691406 -1.453125 6.015625 -1.453125 C 6.265625 -1.453125 6.5 -1.550781 6.71875 -1.75 C 6.9375 -1.945312 7.15625 -2.273438 7.375 -2.734375 L 7.609375 -2.5625 C 7.191406 -1.59375 6.617188 -1.109375 5.890625 -1.109375 C 5.492188 -1.109375 5.171875 -1.25 4.921875 -1.53125 C 4.679688 -1.8125 4.519531 -2.234375 4.4375 -2.796875 C 3.957031 -1.847656 3.414062 -1.03125 2.8125 -0.34375 C 2.207031 0.332031 1.644531 0.671875 1.125 0.671875 Z M 1.125 0.671875 "/></g></g></g><g fill="#000000" fill-opacity="1"><g transform="translate(201.575124, 226.4971)"><g/></g></g><g fill="#000000" fill-opacity="1"><g transform="translate(206.078397, 226.4971)"><g><path d="M 3.125 1.5 C 2.445312 1.5 1.851562 1.359375 1.34375 1.078125 C 0.832031 0.796875 0.4375 0.414062 0.15625 -0.0625 C -0.125 -0.539062 -0.265625 -1.066406 -0.265625 -1.640625 C -0.265625 -2.347656 -0.0625 -3.03125 0.34375 -3.6875 C 0.75 -4.34375 1.296875 -4.894531 1.984375 -5.34375 C 2.671875 -5.789062 3.421875 -6.054688 4.234375 -6.140625 C 3.785156 -6.492188 3.453125 -6.910156 3.234375 -7.390625 C 3.015625 -7.867188 2.90625 -8.363281 2.90625 -8.875 C 2.90625 -9.488281 3.0625 -10.070312 3.375 -10.625 C 3.6875 -11.175781 4.113281 -11.617188 4.65625 -11.953125 C 5.195312 -12.285156 5.804688 -12.453125 6.484375 -12.453125 C 7.117188 -12.453125 7.601562 -12.289062 7.9375 -11.96875 C 8.28125 -11.644531 8.453125 -11.1875 8.453125 -10.59375 C 8.453125 -10.175781 8.375 -9.765625 8.21875 -9.359375 C 8.070312 -8.953125 7.890625 -8.617188 7.671875 -8.359375 C 7.453125 -8.097656 7.25 -7.96875 7.0625 -7.96875 C 6.9375 -7.96875 6.816406 -8.019531 6.703125 -8.125 C 6.585938 -8.226562 6.492188 -8.363281 6.421875 -8.53125 C 7.398438 -9.375 7.890625 -10.175781 7.890625 -10.9375 C 7.890625 -11.289062 7.785156 -11.566406 7.578125 -11.765625 C 7.367188 -11.960938 7.0625 -12.0625 6.65625 -12.0625 C 5.882812 -12.0625 5.273438 -11.726562 4.828125 -11.0625 C 4.390625 -10.394531 4.171875 -9.566406 4.171875 -8.578125 C 4.171875 -7.410156 4.507812 -6.535156 5.1875 -5.953125 C 4.445312 -5.828125 3.785156 -5.539062 3.203125 -5.09375 C 2.617188 -4.644531 2.164062 -4.101562 1.84375 -3.46875 C 1.519531 -2.84375 1.359375 -2.21875 1.359375 -1.59375 C 1.359375 -0.9375 1.535156 -0.351562 1.890625 0.15625 C 2.253906 0.664062 2.8125 0.921875 3.5625 0.921875 C 4.15625 0.921875 4.757812 0.75 5.375 0.40625 C 5.988281 0.0625 6.546875 -0.390625 7.046875 -0.953125 C 7.554688 -1.515625 7.96875 -2.132812 8.28125 -2.8125 L 8.53125 -2.640625 C 7.882812 -1.390625 7.097656 -0.390625 6.171875 0.359375 C 5.242188 1.117188 4.226562 1.5 3.125 1.5 Z M 3.125 1.5 "/></g></g></g><g fill="#000000" fill-opacity="1"><g transform="translate(214.703888, 226.4971)"><g><path d="M 1.125 0.671875 C 0.78125 0.671875 0.535156 0.503906 0.390625 0.171875 C 0.242188 -0.148438 0.171875 -0.617188 0.171875 -1.234375 C 0.171875 -1.453125 0.207031 -2.207031 0.28125 -3.5 C 0.300781 -3.84375 0.335938 -4.0625 0.390625 -4.15625 C 0.453125 -4.257812 0.597656 -4.3125 0.828125 -4.3125 C 1.023438 -4.3125 1.148438 -4.273438 1.203125 -4.203125 C 1.253906 -4.128906 1.28125 -3.984375 1.28125 -3.765625 C 1.28125 -3.523438 1.257812 -3.097656 1.21875 -2.484375 C 1.15625 -1.921875 1.125 -1.414062 1.125 -0.96875 C 1.125 -0.625 1.148438 -0.375 1.203125 -0.21875 C 1.265625 -0.0703125 1.375 0 1.53125 0 C 1.90625 0 2.363281 -0.390625 2.90625 -1.171875 C 3.445312 -1.953125 3.941406 -2.828125 4.390625 -3.796875 C 4.410156 -4.523438 4.484375 -5.03125 4.609375 -5.3125 C 4.742188 -5.601562 4.9375 -5.75 5.1875 -5.75 C 5.375 -5.75 5.523438 -5.675781 5.640625 -5.53125 C 5.753906 -5.382812 5.8125 -5.238281 5.8125 -5.09375 C 5.8125 -4.976562 5.75 -4.816406 5.625 -4.609375 C 5.488281 -4.335938 5.382812 -4.070312 5.3125 -3.8125 C 5.238281 -3.5625 5.203125 -3.210938 5.203125 -2.765625 C 5.203125 -2.390625 5.253906 -2.078125 5.359375 -1.828125 C 5.472656 -1.578125 5.691406 -1.453125 6.015625 -1.453125 C 6.265625 -1.453125 6.5 -1.550781 6.71875 -1.75 C 6.9375 -1.945312 7.15625 -2.273438 7.375 -2.734375 L 7.609375 -2.5625 C 7.191406 -1.59375 6.617188 -1.109375 5.890625 -1.109375 C 5.492188 -1.109375 5.171875 -1.25 4.921875 -1.53125 C 4.679688 -1.8125 4.519531 -2.234375 4.4375 -2.796875 C 3.957031 -1.847656 3.414062 -1.03125 2.8125 -0.34375 C 2.207031 0.332031 1.644531 0.671875 1.125 0.671875 Z M 1.125 0.671875 "/></g></g></g><g fill="#000000" fill-opacity="1"><g transform="translate(221.753242, 226.4971)"><g><path d="M 1.875 0.765625 C 1.1875 0.765625 0.660156 0.578125 0.296875 0.203125 C -0.0664062 -0.171875 -0.25 -0.65625 -0.25 -1.25 C -0.25 -1.925781 -0.0234375 -2.65625 0.421875 -3.4375 C 0.878906 -4.226562 1.453125 -4.890625 2.140625 -5.421875 C 2.828125 -5.960938 3.5 -6.234375 4.15625 -6.234375 C 4.875 -6.234375 5.234375 -5.882812 5.234375 -5.1875 C 5.234375 -4.613281 5.019531 -4.082031 4.59375 -3.59375 C 4.164062 -3.101562 3.613281 -2.703125 2.9375 -2.390625 C 2.269531 -2.078125 1.601562 -1.882812 0.9375 -1.8125 C 0.882812 -1.625 0.859375 -1.421875 0.859375 -1.203125 C 0.859375 -0.785156 0.960938 -0.4375 1.171875 -0.15625 C 1.378906 0.125 1.734375 0.265625 2.234375 0.265625 C 2.941406 0.265625 3.648438 -0.0234375 4.359375 -0.609375 C 5.078125 -1.203125 5.660156 -1.9375 6.109375 -2.8125 L 6.328125 -2.65625 C 5.859375 -1.625 5.210938 -0.796875 4.390625 -0.171875 C 3.578125 0.453125 2.738281 0.765625 1.875 0.765625 Z M 1.015625 -2.15625 C 1.503906 -2.320312 2.015625 -2.5625 2.546875 -2.875 C 3.078125 -3.1875 3.53125 -3.550781 3.90625 -3.96875 C 4.28125 -4.394531 4.46875 -4.835938 4.46875 -5.296875 C 4.46875 -5.441406 4.441406 -5.546875 4.390625 -5.609375 C 4.335938 -5.671875 4.242188 -5.703125 4.109375 -5.703125 C 3.742188 -5.703125 3.347656 -5.519531 2.921875 -5.15625 C 2.503906 -4.800781 2.117188 -4.347656 1.765625 -3.796875 C 1.421875 -3.242188 1.171875 -2.695312 1.015625 -2.15625 Z M 1.015625 -2.15625 "/></g></g></g><g fill="#000000" fill-opacity="1"><g transform="translate(227.520893, 226.4971)"><g><path d="M 5.59375 0.34375 C 5.195312 0.34375 4.894531 0.238281 4.6875 0.03125 C 4.488281 -0.164062 4.390625 -0.429688 4.390625 -0.765625 C 4.390625 -0.910156 4.414062 -1.082031 4.46875 -1.28125 C 4.519531 -1.488281 4.570312 -1.691406 4.625 -1.890625 C 4.695312 -2.097656 4.757812 -2.316406 4.8125 -2.546875 C 4.863281 -2.773438 4.890625 -2.984375 4.890625 -3.171875 C 4.890625 -3.734375 4.65625 -4.015625 4.1875 -4.015625 C 3.75 -4.015625 3.289062 -3.785156 2.8125 -3.328125 C 2.332031 -2.867188 1.90625 -2.351562 1.53125 -1.78125 C 1.15625 -1.21875 0.734375 -0.535156 0.265625 0.265625 C 0.0664062 0.265625 -0.109375 0.226562 -0.265625 0.15625 C -0.429688 0.09375 -0.5625 0 -0.65625 -0.125 C -0.65625 -0.175781 -0.582031 -0.382812 -0.4375 -0.75 C -0.144531 -1.488281 0.0859375 -2.160156 0.265625 -2.765625 C 0.453125 -3.367188 0.554688 -3.910156 0.578125 -4.390625 C 0.648438 -4.472656 0.757812 -4.550781 0.90625 -4.625 C 1.0625 -4.707031 1.21875 -4.75 1.375 -4.75 C 1.6875 -4.75 1.84375 -4.597656 1.84375 -4.296875 C 1.84375 -4.117188 1.789062 -3.8125 1.6875 -3.375 C 1.582031 -2.945312 1.445312 -2.492188 1.28125 -2.015625 C 1.832031 -2.867188 2.421875 -3.585938 3.046875 -4.171875 C 3.671875 -4.765625 4.285156 -5.0625 4.890625 -5.0625 C 5.316406 -5.0625 5.632812 -4.90625 5.84375 -4.59375 C 6.0625 -4.289062 6.171875 -3.925781 6.171875 -3.5 C 6.171875 -3.25 6.140625 -3.003906 6.078125 -2.765625 C 6.015625 -2.535156 5.914062 -2.269531 5.78125 -1.96875 C 5.675781 -1.71875 5.59375 -1.5 5.53125 -1.3125 C 5.476562 -1.132812 5.453125 -0.953125 5.453125 -0.765625 C 5.453125 -0.328125 5.628906 -0.109375 5.984375 -0.109375 C 6.367188 -0.109375 6.769531 -0.363281 7.1875 -0.875 C 7.613281 -1.394531 8.019531 -2.039062 8.40625 -2.8125 L 8.59375 -2.578125 C 7.757812 -0.628906 6.757812 0.34375 5.59375 0.34375 Z M 5.59375 0.34375 "/></g></g></g><g fill="#000000" fill-opacity="1"><g transform="translate(235.592135, 226.4971)"><g><path d="M 1.46875 0.796875 C 0.445312 0.796875 -0.0625 0.222656 -0.0625 -0.921875 C -0.0625 -1.410156 0.0234375 -2.019531 0.203125 -2.75 C 0.378906 -3.488281 0.625 -4.269531 0.9375 -5.09375 C 0.65625 -5.132812 0.445312 -5.179688 0.3125 -5.234375 L 0.3125 -5.546875 C 0.726562 -5.492188 0.984375 -5.46875 1.078125 -5.46875 C 1.585938 -6.789062 2.132812 -7.929688 2.71875 -8.890625 C 3.300781 -9.859375 3.757812 -10.34375 4.09375 -10.34375 C 4.1875 -10.34375 4.269531 -10.304688 4.34375 -10.234375 C 4.414062 -10.171875 4.453125 -10.082031 4.453125 -9.96875 C 4.453125 -9.8125 4.378906 -9.585938 4.234375 -9.296875 C 4.085938 -9.015625 3.84375 -8.570312 3.5 -7.96875 C 3.4375 -7.851562 3.253906 -7.53125 2.953125 -7 C 2.660156 -6.476562 2.394531 -5.953125 2.15625 -5.421875 L 2.796875 -5.421875 C 3.753906 -5.421875 4.578125 -5.457031 5.265625 -5.53125 L 5.265625 -5.21875 C 4.003906 -5.070312 2.988281 -5 2.21875 -5 L 1.953125 -5 C 1.316406 -3.550781 1 -2.296875 1 -1.234375 C 1 -0.734375 1.070312 -0.375 1.21875 -0.15625 C 1.375 0.0507812 1.625 0.15625 1.96875 0.15625 C 2.5625 0.15625 3.144531 -0.101562 3.71875 -0.625 C 4.300781 -1.15625 4.816406 -1.882812 5.265625 -2.8125 L 5.5 -2.640625 C 5.070312 -1.628906 4.492188 -0.800781 3.765625 -0.15625 C 3.035156 0.476562 2.269531 0.796875 1.46875 0.796875 Z M 1.46875 0.796875 "/></g></g></g></svg>